<?xml version="1.0" encoding="UTF-8"?><svg id="Layer_1" xmlns="http://www.w3.org/2000/svg" xmlns:xlink="http://www.w3.org/1999/xlink" viewBox="0 0 1024 1024"><defs><style>.cls-1{fill:#fff;}.cls-2{stroke:url(#linear-gradient-3);}.cls-2,.cls-3,.cls-4,.cls-5,.cls-6,.cls-7{fill:none;stroke-linecap:round;stroke-linejoin:round;stroke-width:51px;}.cls-3{stroke:url(#linear-gradient-4);}.cls-4{stroke:url(#linear-gradient-5);}.cls-5{stroke:url(#linear-gradient-2);}.cls-6{stroke:url(#linear-gradient-6);}.cls-7{stroke:url(#linear-gradient);}</style><linearGradient id="linear-gradient" x1="486.5" y1="557" x2="537.5" y2="557" gradientUnits="userSpaceOnUse"><stop offset="0" stop-color="#333"/><stop offset="1" stop-color="#666"/></linearGradient><linearGradient id="linear-gradient-2" x1="576.5" y1="512" x2="672.5" y2="512" xlink:href="#linear-gradient"/><linearGradient id="linear-gradient-3" x1="576.5" y1="422" x2="672.5" y2="422" xlink:href="#linear-gradient"/><linearGradient id="linear-gradient-4" x1="261.5" y1="512" x2="762.5" y2="512" xlink:href="#linear-gradient"/><linearGradient id="linear-gradient-5" x1="351.5" y1="512" x2="447.5" y2="512" xlink:href="#linear-gradient"/><linearGradient id="linear-gradient-6" x1="351.5" y1="422" x2="447.5" y2="422" xlink:href="#linear-gradient"/></defs><rect class="cls-1" width="1024" height="1024"/><path class="cls-7" d="M512,399.5v315"/><path class="cls-5" d="M602,512h45"/><path class="cls-2" d="M602,422h45"/><path class="cls-3" d="M309.5,647c-12.43,0-22.5-10.07-22.5-22.5v-292.5c0-12.43,10.07-22.5,22.5-22.5h112.5c49.71,0,90,40.29,90,90,0-49.71,40.29-90,90-90h112.5c12.43,0,22.5,10.07,22.5,22.5v292.5c0,12.43-10.07,22.5-22.5,22.5h-135c-37.28,0-67.5,30.22-67.5,67.5,0-37.28-30.22-67.5-67.5-67.5h-135Z"/><path class="cls-4" d="M377,512h45"/><path class="cls-6" d="M377,422h45"/></svg>