<?xml version="1.0" encoding="UTF-8"?><svg id="Layer_1" xmlns="http://www.w3.org/2000/svg" xmlns:xlink="http://www.w3.org/1999/xlink" viewBox="0 0 1024 1024"><defs><style>.cls-1{fill:url(#linear-gradient);}.cls-2{fill:#fff;}</style><linearGradient id="linear-gradient" x1="193" y1="512" x2="831" y2="512" gradientUnits="userSpaceOnUse"><stop offset="0" stop-color="#0300aa"/><stop offset="1" stop-color="#bfe1ff"/></linearGradient></defs><rect class="cls-2" width="1024" height="1024"/><path class="cls-1" d="M627.04,489.5c-102.34,209.76-204.68,275.81-322.27,275.81-38.47,0-60.97-15.24-61.7-33.39,92.91,0,170.57-108.87,170.57-269.28,0-81.29-26.13-149.52-79.84-149.52-18.87,0-40.65,10.89-40.65,34.11,0,18.15,13.79,30.48,32.66,30.48,15.97,0,28.31-7.98,35.57-17.42,0,5.08.73,10.89.73,16.69,0,49.36-33.39,95.81-89.28,95.81-47.18,0-79.84-34.84-79.84-78.39,0-66.78,61.7-120.49,141.54-120.49,97.26,0,177.83,95.81,177.83,261.3,0,31.94-4.35,63.15-12.34,89.28,29.76-36.29,64.6-123.39,80.57-192.34,30.49-132.1,86.37-173.47,165.49-173.47,30.48,0,50.08,7.26,84.92,29.03-84.2,15.97-127.02,44.28-203.96,201.78Z"/></svg>