<?xml version="1.0" encoding="UTF-8"?><svg id="Layer_1" xmlns="http://www.w3.org/2000/svg" viewBox="0 0 589.94 527.72"><defs><style>.cls-1{opacity:.75;}.cls-2{opacity:.5;}</style></defs><path class="cls-2" d="M295.89,123.4s0,0,0,0c.06,0,.95-2.87,2.55-7.57,3.03-8.91,8.35-24.47,13.54-39.84,2.75-8.13,5.49-16.16,7.88-23.18,4.28-12.59,7.42-21.83,7.42-21.83C250.57-9.55,156.13-12.59,83.05,35.45-48.99,117.96-20.62,358.83,147.06,362.17c16.69.28,36.14-3.07,41.44-21.09,10.92-31.52,30.16-77.63-24.54-71-49.06-1.73-67.24-50.66-52.53-98.26,19.84-84.96,124.02-94.67,184.47-48.41Z"/><path d="M561.44,55.34c-150.47-7.33-50.04,25.35-114.06,199.33-29.53,74.2-56.76,139.83-129.21,167.31-2.95.13,52.6-157.07,81.86-240.76l-104.13-57.81,31.31-92.12s-.01,0-.02-.01l-137.06,403.24c-8.39,49.87,8.13,94.6,75.57,93.17,207.13-1.55,323.87-259.56,324.25-443.85,0-15.74-12.76-28.5-28.5-28.5Z"/><path class="cls-1" d="M400.03,181.21h0c10.59-30.29,17.75-51.02,17.51-51.32,3.24-9.39,1.35-19.79-4.98-27.45-22.85-29.87-52.35-54.07-85.28-71.46l-31.41,92.41,104.15,57.82Z"/></svg>