<?xml version="1.0" encoding="UTF-8"?><svg id="Layer_1" xmlns="http://www.w3.org/2000/svg" viewBox="0 0 1024 1024"><defs><style>.cls-1{fill:#fff;}</style></defs><rect class="cls-1" width="1024" height="1024"/><path d="M779.38,331.95c0,53.95-11.05,112.45-29.9,168.35-44.2,131.3-139.1,247-265.85,247-69.55,0-51.35-52.65-34.45-102.05l97.5-282.75c-32.5-31.2-76.7-47.45-119.6-47.45-60.45,0-108.55,35.1-126.1,96.85-23.4,81.9,25.35,134.55,79.95,134.55,1.3,0,3.9,0,8.45-.65l-11.05,34.45c-3.25.65-9.75,1.3-14.3,1.3-66.3,0-145.6-68.9-111.15-188.5,21.45-74.1,89.05-116.35,171.6-116.35,66.3,0,131.3,28.6,183.95,92.3l-103.35,299.65c-7.8,22.1-4.55,31.85,15.6,31.85,72.8,0,137.15-87.75,171.6-188.5,20.8-60.45,31.2-126.1,26-180.05h61.1Z"/><path d="M483.63,775.8c-31.32,0-53.82-9.27-66.9-27.56-22.26-31.14-7.59-74,5.34-111.81l.14-.4,90.96-263.78c.12-.35,0-.75-.3-.97-24.39-17.78-54.78-27.73-85.79-27.73-48.96,0-84.93,27.75-98.68,76.14-8.71,30.48-5.76,57.5,8.3,76.13,10.6,14.06,26.73,22.12,44.24,22.12.75,0,1.88,0,4.42-.36h0c24.79-3.54,38.81,13.07,31.17,36.92l-11.05,34.45c-3.16,9.85-11.4,17.21-21.55,19.24h0c-5.37,1.07-13.73,1.85-19.89,1.85-21.05,0-42.72-5.37-62.68-15.52-20.56-10.46-38.83-25.82-52.83-44.42-32.9-43.71-41.07-102.29-23.03-164.95,12.29-42.45,38.05-77.64,74.52-101.83,34.67-22.98,77.7-35.13,124.46-35.13,38.36,0,75.21,8.45,109.54,25.13,35.81,17.39,68.23,43.47,96.37,77.52h0c6.33,7.66,8.21,18.06,4.98,27.45l-100.26,290.69c-.22.63.35,1.27,1,1.11,25.65-6.26,47.94-26.84,63.08-44.57,25.97-30.41,49.46-74,66.12-122.74,20.26-58.89,29.22-120.14,24.6-168.09h0c-1.61-16.74,11.55-31.23,28.37-31.23h61.1c15.74,0,28.5,12.76,28.5,28.5h0c0,55.19-10.86,116.55-31.39,177.46-24.76,73.54-62.37,137.08-108.77,183.73-53.79,54.08-117.44,82.66-184.09,82.66ZM574.37,373.45c-.44-.46-1.21-.29-1.42.31l-96.93,281.11c-5.22,15.26-10.62,31.05-12.82,43.86-1.96,11.46-.49,15.5-.15,16.23.04.08.09.16.15.22.96.89,6.49,3.62,20.44,3.62.47,0,.94,0,1.42,0,.76,0,1.13-.94.57-1.46-2.02-1.86-3.85-3.95-5.48-6.25-13.47-19.03-5.17-42.77-1.97-51.82l97.77-283.47c.1-.3.03-.63-.18-.86-.46-.5-.93-.99-1.39-1.49ZM529.68,686.51h0ZM748.91,360.45c-.47,0-.84.37-.84.84-.02,8.21-.33,16.63-.9,25.21,1.11-8.49,1.97-16.88,2.59-25.14.04-.49-.36-.91-.85-.91h0Z"/></svg>